<svg xmlns="http://www.w3.org/2000/svg" viewBox="0 0 512 512" width="512" height="512"><path d="M 168 176 Q 168 152 192 152 L 312 152 L 344 186 L 344 292 Q 344 356 256 396 Q 168 356 168 292 Z" fill="none" stroke="#0f172a" stroke-width="15" stroke-linejoin="round"/><path d="M 312 152 L 312 186 L 344 186" fill="none" stroke="#0f172a" stroke-width="9" stroke-linejoin="round"/><rect x="200" y="228" width="66" height="13" rx="6.5" fill="#0f172a"/><rect x="274" y="228" width="40" height="13" rx="6.5" fill="#0f172a"/><rect x="200" y="258" width="44" height="13" rx="6.5" fill="#0f172a"/><rect x="252" y="258" width="62" height="13" rx="6.5" fill="#0f172a"/><rect x="214" y="288" width="52" height="13" rx="6.5" fill="#0f172a"/><rect x="274" y="288" width="24" height="13" rx="6.5" fill="#0f172a"/><rect x="226" y="318" width="40" height="13" rx="6.5" fill="#0f172a"/></svg>