<svg xmlns="http://www.w3.org/2000/svg" viewBox="0 0 760 200" width="760" height="200"><rect width="760" height="200" fill="#0f172a"/><svg x="20" y="45" width="110" height="110" viewBox="0 0 512 512"><rect width="512" height="512" rx="120" fill="#ffffff"/><path d="M 168 176 Q 168 152 192 152 L 312 152 L 344 186 L 344 292 Q 344 356 256 396 Q 168 356 168 292 Z" fill="#0f172a"/><path d="M 312 152 L 344 186 L 312 186 Z" fill="#64748b"/><rect x="200" y="228" width="66" height="13" rx="6.5" fill="#ffffff"/><rect x="274" y="228" width="40" height="13" rx="6.5" fill="#ffffff"/><rect x="200" y="258" width="44" height="13" rx="6.5" fill="#ffffff"/><rect x="252" y="258" width="62" height="13" rx="6.5" fill="#ffffff"/><rect x="214" y="288" width="52" height="13" rx="6.5" fill="#ffffff"/><rect x="274" y="288" width="24" height="13" rx="6.5" fill="#ffffff"/><rect x="226" y="318" width="40" height="13" rx="6.5" fill="#ffffff"/></svg><g transform="translate(160,75)"><text x="0" y="52" font-family="Arial, Helvetica, sans-serif" font-size="66" font-weight="700" letter-spacing="-3" fill="#ffffff">engram</text><text x="232" y="52" font-family="Arial, Helvetica, sans-serif" font-size="66" font-weight="300" letter-spacing="-1.5" fill="#cbd5e1">store</text><circle cx="405" cy="46" r="6" fill="#ffffff"/></g></svg>